<?xml version="1.0" encoding="UTF-8"?>
<svg width="100px" height="100px" viewBox="0 0 100 100" version="1.1" xmlns="http://www.w3.org/2000/svg" xmlns:xlink="http://www.w3.org/1999/xlink">
    <!-- Generator: Sketch 53.2 (72643) - https://sketchapp.com -->
    <title> NA/configure-form-charts-and-dashboards-in-model-driven-apps-for-customer-engagement</title>
    <desc>Created with Sketch.</desc>
    <defs>
        <rect id="path-1" x="0" y="0" width="96" height="96" rx="48"></rect>
        <filter x="-6.0%" y="-7.1%" width="113.3%" height="115.8%" filterUnits="objectBoundingBox" id="filter-3">
            <feOffset dx="0" dy="2" in="SourceAlpha" result="shadowOffsetOuter1"></feOffset>
            <feColorMatrix values="0 0 0 0 0   0 0 0 0 0   0 0 0 0 0  0 0 0 0.0964956975 0" type="matrix" in="shadowOffsetOuter1" result="shadowMatrixOuter1"></feColorMatrix>
            <feMerge>
                <feMergeNode in="shadowMatrixOuter1"></feMergeNode>
                <feMergeNode in="SourceGraphic"></feMergeNode>
            </feMerge>
        </filter>
        <filter x="-30.2%" y="-30.2%" width="166.0%" height="166.0%" filterUnits="objectBoundingBox" id="filter-4">
            <feOffset dx="0" dy="2" in="SourceAlpha" result="shadowOffsetOuter1"></feOffset>
            <feColorMatrix values="0 0 0 0 0   0 0 0 0 0   0 0 0 0 0  0 0 0 0.1 0" type="matrix" in="shadowOffsetOuter1" result="shadowMatrixOuter1"></feColorMatrix>
            <feMerge>
                <feMergeNode in="shadowMatrixOuter1"></feMergeNode>
                <feMergeNode in="SourceGraphic"></feMergeNode>
            </feMerge>
        </filter>
        <filter x="-22.3%" y="-23.3%" width="145.0%" height="151.6%" filterUnits="objectBoundingBox" id="filter-5">
            <feOffset dx="0" dy="2" in="SourceAlpha" result="shadowOffsetOuter1"></feOffset>
            <feColorMatrix values="0 0 0 0 0   0 0 0 0 0   0 0 0 0 0  0 0 0 0.1 0" type="matrix" in="shadowOffsetOuter1" result="shadowMatrixOuter1"></feColorMatrix>
            <feMerge>
                <feMergeNode in="shadowMatrixOuter1"></feMergeNode>
                <feMergeNode in="SourceGraphic"></feMergeNode>
            </feMerge>
        </filter>
        <path d="M0.257533446,6.56263492 C1.68351523,6.56263492 2.83854499,5.16385616 2.83854499,3.43757067 L2.83854499,3.43757067 C2.83854499,1.71128518 1.68351523,0.312506425 0.257533446,0.312506425 L0.257533446,0.312506425 L0.257533446,6.56263492 Z" id="path-6"></path>
    </defs>
    <g id="Badges" stroke="none" stroke-width="1" fill="none" fill-rule="evenodd">
        <g id="N/A-8" transform="translate(-50.000000, -260.000000)">
            <g id="-NA/configure-form-charts-and-dashboards-in-model-driven-apps-for-customer-engagement" transform="translate(50.000000, 260.000000)">
                <g id="Mask" transform="translate(2.000000, 2.000000)">
                    <mask id="mask-2" fill="white">
                        <use xlink:href="#path-1"></use>
                    </mask>
                    <use id="BG" fill="#55A2FF" xlink:href="#path-1"></use>
                    <g id="dashboard" mask="url(#mask-2)">
                        <g transform="translate(14.000000, 20.000000)">
                            <g id="dashboard" filter="url(#filter-3)" transform="translate(-0.000000, 0.000000)">
                                <path d="M62.6452599,2.33944954 L4.41896024,2.33944954 C3.27211009,2.33944954 2.33944954,3.26278349 2.33944954,4.39816514 L2.33944954,51.7486239 C2.33944954,52.8829761 3.27211009,53.8073394 4.41896024,53.8073394 L62.6452599,53.8073394 C63.7910703,53.8073394 64.7247706,52.8829761 64.7247706,51.7486239 L64.7247706,4.39816514 C64.7247706,3.26278349 63.7910703,2.33944954 62.6452599,2.33944954" id="Fill-1523" fill="#FFFFFF"></path>
                                <path d="M62.8727064,0 L4.19151376,0 C1.88618119,0 0,1.87155963 0,4.15902141 L0,51.9877676 C0,54.2752294 1.88618119,56.146789 4.19151376,56.146789 L62.8727064,56.146789 C65.178039,56.146789 67.0642202,54.2752294 67.0642202,51.9877676 L67.0642202,4.15902141 C67.0642202,1.87155963 65.178039,0 62.8727064,0 Z M62.7423038,2.24587156 C63.8919335,2.24587156 64.8287462,3.17256308 64.8287462,4.31207339 L64.8287462,51.8347156 C64.8287462,52.9731928 63.8919335,53.9009174 62.7423038,53.9009174 L4.32191641,53.9009174 C3.17124343,53.9009174 2.23547401,52.9731928 2.23547401,51.8347156 L2.23547401,4.31207339 C2.23547401,3.17256308 3.17124343,2.24587156 4.32191641,2.24587156 L62.7423038,2.24587156 L62.7423038,2.24587156 Z" id="Fill-1524" fill="#C9C9C9"></path>
                                <path d="M25.3440367,29.6330275 L39.7706422,29.6330275 L39.7706422,31.9724771 L25.3440367,31.9724771 C24.6980155,31.9724771 24.1743119,31.4487734 24.1743119,30.8027523 L24.1743119,30.8027523 C24.1743119,30.1567311 24.6980155,29.6330275 25.3440367,29.6330275 Z" id="Rectangle" fill="#55B7D9" fill-rule="nonzero"></path>
                                <rect id="Rectangle" fill="#F7CB64" fill-rule="nonzero" x="39.7706422" y="29.6330275" width="12.4770642" height="2.33944954"></rect>
                                <path d="M52.2477064,29.6330275 L59.6559633,29.6330275 C60.3019845,29.6330275 60.8256881,30.1567311 60.8256881,30.8027523 L60.8256881,30.8027523 C60.8256881,31.4487734 60.3019845,31.9724771 59.6559633,31.9724771 L52.2477064,31.9724771 L52.2477064,29.6330275 Z" id="Rectangle-Copy" fill="#DF5142" fill-rule="nonzero"></path>
                                <path d="M25.3440367,37.4311927 L31.9724771,37.4311927 L31.9724771,39.7706422 L25.3440367,39.7706422 C24.6980155,39.7706422 24.1743119,39.2469386 24.1743119,38.6009174 L24.1743119,38.6009174 C24.1743119,37.9548963 24.6980155,37.4311927 25.3440367,37.4311927 Z" id="Rectangle" fill="#F7CB64" fill-rule="nonzero"></path>
                                <rect id="Rectangle" fill="#DF5142" fill-rule="nonzero" x="31.9724771" y="37.4311927" width="5.4587156" height="2.33944954"></rect>
                                <path d="M37.4311927,37.4311927 L51.8577982,37.4311927 C52.5038193,37.4311927 53.0275229,37.9548963 53.0275229,38.6009174 L53.0275229,38.6009174 C53.0275229,39.2469386 52.5038193,39.7706422 51.8577982,39.7706422 L37.4311927,39.7706422 L37.4311927,37.4311927 Z" id="Rectangle-Copy" fill="#7CB65A" fill-rule="nonzero"></path>
                                <path d="M25.3440367,45.2293578 L39.7706422,45.2293578 L39.7706422,47.5688073 L25.3440367,47.5688073 C24.6980155,47.5688073 24.1743119,47.0451037 24.1743119,46.3990826 L24.1743119,46.3990826 C24.1743119,45.7530614 24.6980155,45.2293578 25.3440367,45.2293578 Z" id="Rectangle" fill="#F7CB64" fill-rule="nonzero"></path>
                                <path d="M40.5504587,45.2293578 L47.9587156,45.2293578 C48.6047367,45.2293578 49.1284404,45.7530614 49.1284404,46.3990826 L49.1284404,46.3990826 C49.1284404,47.0451037 48.6047367,47.5688073 47.9587156,47.5688073 L40.5504587,47.5688073 L40.5504587,45.2293578 Z" id="Rectangle-Copy" fill="#55B7D9" fill-rule="nonzero"></path>
                                <g id="Pie-Chart" filter="url(#filter-4)" transform="translate(47.568807, 9.357798)" fill-rule="nonzero">
                                    <circle id="Oval" fill="#55B7D9" cx="6.62844037" cy="6.62844037" r="6.62844037"></circle>
                                    <path d="M6.62844037,0.0173126619 C6.78084864,0.00583890283 6.93479812,0 7.09008823,0 C10.4959137,0 13.2568807,2.80859066 13.2568807,6.27316282 C13.2568807,6.39239484 13.2536107,6.51084994 13.247157,6.62844037 L6.62844037,6.62844037 L6.62844037,0.0173126619 Z" id="Combined-Shape" fill="#0095B2"></path>
                                </g>
                                <g id="Graph" filter="url(#filter-5)" transform="translate(24.174312, 5.458716)" fill-rule="nonzero">
                                    <rect id="Blue" fill="#55B7D9" x="0" y="0" width="4.48394495" height="17.1559633"></rect>
                                    <rect id="Red" fill="#DF5142" x="6.72591743" y="8.00611621" width="4.48394495" height="9.14984709"></rect>
                                    <rect id="Green" fill="#7CB65A" x="13.4518349" y="4.57492355" width="4.48394495" height="12.5810398"></rect>
                                </g>
                            </g>
                            <g id="Lines" transform="translate(4.678899, 24.174312)">
                                <rect id="Rectangle" fill="#E1E4E1" fill-rule="nonzero" x="0" y="0" width="14.0366972" height="1.55963303" rx="0.779816514"></rect>
                                <rect id="Rectangle" fill="#E1E4E1" fill-rule="nonzero" x="0" y="3.89908257" width="14.0366972" height="1.55963303" rx="0.779816514"></rect>
                            </g>
                            <g id="User1" transform="translate(4.678899, 7.018349)">
                                <path d="M7.01834862,14.0366972 C10.8880906,14.0366972 14.0366972,10.8880906 14.0366972,7.01834862 C14.0366972,3.14838733 10.8880906,-9.09494702e-13 7.01834862,-9.09494702e-13 C3.14838733,-9.09494702e-13 0,3.14838733 0,7.01834862 C0,10.8880906 3.14838733,14.0366972 7.01834862,14.0366972" id="Fill-115" fill="#ADBDC4"></path>
                                <path d="M7.01834862,-9.09494702e-13 C10.8880906,-9.08313877e-13 14.0366972,3.14838733 14.0366972,7.01834862 C14.0366972,10.8880906 10.8880906,14.0366972 7.01834862,14.0366972 L7.01834862,-9.09716746e-13 Z" id="Combined-Shape" fill-opacity="0.18" fill="#4B5B67"></path>
                                <path d="M7.01834862,8.57798165 C8.31005657,8.57798165 9.35779817,7.53067581 9.35779817,6.23881286 C9.35779817,4.94640244 8.31007061,3.89908257 7.01834862,3.89908257 C5.72662664,3.89908257 4.67889908,4.94638841 4.67889908,6.23881286 C4.67889908,7.53067581 5.72662664,8.57798165 7.01834862,8.57798165 Z" id="Path" fill="#FFFFFE"></path>
                                <path d="M7.0184461,13.2568807 C9.33164411,13.2568807 11.357977,11.7802751 12.4770642,10.233112 C12.4702651,10.1902769 12.4505466,10.1485852 12.4158687,10.1126029 C11.700551,9.36156695 10.5684783,9.35779817 9.04938138,9.35779817 L4.98731587,9.35779817 C3.46828858,9.35779817 2.33625066,9.36156695 1.62082859,10.1126029 C1.58615064,10.1485837 1.56643215,10.1902769 1.55963303,10.233112 C2.67903704,11.7803043 4.7052481,13.2568807 7.0184461,13.2568807 Z" id="Path" fill="#FFFFFE"></path>
                            </g>
                        </g>
                    </g>
                    <g id="Gear" mask="url(#mask-2)">
                        <g transform="translate(55.000000, 54.000000)">
                            <circle id="Oval" fill="#01B6C3" fill-rule="nonzero" cx="16.5711009" cy="16.5711009" r="3.31422018"></circle>
                            <g id="Gear-1" stroke-width="1" fill="none" fill-rule="evenodd" transform="translate(17.148685, 16.532379) rotate(-45.000000) translate(-17.148685, -16.532379) translate(5.461185, 4.844879)">
                                <path d="M13.7488066,11.5248414 C13.7488066,10.1910641 12.6261657,9.0944755 11.237186,9.0944755 C9.84799131,9.0944755 8.72556536,10.1909299 8.72556536,11.5248414 C8.72556536,12.858753 9.84799131,13.9552073 11.237186,13.9552073 C12.6261657,13.9552073 13.7488066,12.8586187 13.7488066,11.5248414 Z M18.2798365,9.3148173 C18.2802186,9.31576587 18.2805776,9.31659934 18.2810176,9.31762118 L18.2798365,9.3148173 Z M20.0640664,8.39878628 L21.4505667,8.69996235 C22.5997983,8.94918498 23.4743719,10.0138593 23.4743719,11.1818048 L23.4743719,11.867878 C23.4743719,13.0356901 22.5995734,14.1005967 21.4504427,14.3496712 L20.0643113,14.6506053 L19.735636,15.4311225 L20.4848543,16.581019 C21.1265419,17.5666306 20.9724443,18.9369139 20.1299839,19.7598808 L19.6331843,20.245185 C18.8126996,21.0461101 17.4183347,21.1961308 16.4440426,20.5890192 L15.2414401,19.8420282 L14.4085475,20.1771824 L14.1035719,21.5169526 C13.844935,22.6524494 12.7611323,23.5020123 11.588348,23.5020123 L10.8860239,23.5020123 C9.71280442,23.5020123 8.62881428,22.6523025 8.37077017,21.5168214 L8.06585953,20.1773355 L7.23238912,19.8419026 L6.0298411,20.5896653 C5.05289269,21.1956788 3.66087852,21.0453344 2.84093122,20.2449346 L2.34403691,19.7595378 C1.50140694,18.9364053 1.34742469,17.5657671 1.98961072,16.5808761 L2.7384805,15.4310655 L2.40967933,14.6504809 L1.02335148,14.3496982 C-0.125474845,14.1004371 -1,13.0354429 -1,11.867878 L-1,11.1818048 C-1,10.0140218 -0.125658345,8.94946125 1.02381781,8.6996166 L2.40972465,8.39908725 L2.7385986,7.61834947 L1.98966396,6.46888846 C1.34781426,5.48360579 1.50155844,4.11370536 2.34428974,3.28989811 L2.84067485,2.80534179 C3.66044432,2.00396635 5.05421137,1.85414076 6.03007291,2.46072241 L7.23244722,3.20771372 L8.06590761,2.87236815 L8.37071488,1.53276137 C8.62889809,0.397244336 9.71292874,-0.452329491 10.8860239,-0.452329491 L11.588348,-0.452329491 C12.7611384,-0.452329491 13.8452865,0.397235028 14.1039891,1.53302013 L14.4086797,2.872556 L15.2413315,3.20765945 L16.4441015,2.46050214 C17.4202678,1.85373111 18.8136657,2.00336773 19.6334407,2.80474823 L20.1305853,3.29038957 C20.9725513,4.11344941 21.1264907,5.48336563 20.4847257,6.46851818 L19.7355383,7.61865016 L20.0640664,8.39878628 Z" id="Fill-376" stroke="#55A2FF" stroke-width="2" fill="#546670"></path>
                                <path d="M6.94514754,18.9425971 C6.99310679,18.9126277 7.10489414,18.8805915 7.23748735,18.8805915 C7.34645357,18.8805915 7.42720848,18.9016045 7.46282527,18.9202062 C7.48151527,18.9291625 7.50020527,18.9381189 7.51960055,18.9456974 L8.61878412,19.3880039 C8.63641619,19.3948934 8.65404827,19.401094 8.67203298,19.4066056 C8.80286298,19.4475982 8.99328939,19.6518721 9.02326392,19.7831173 L9.38789523,21.3849283 C9.54235221,22.0645785 10.2215397,22.5971376 10.9345809,22.5971376 L11.6398639,22.5971376 C12.3525523,22.5971376 13.0317399,22.0645785 13.1865495,21.3849283 L13.5511808,19.7831173 C13.5808027,19.6518721 13.7715818,19.4475982 13.9024118,19.4066056 C13.9203965,19.401094 13.9380285,19.3948934 13.955308,19.3880039 L15.0544915,18.9456974 C15.0738868,18.9381189 15.0929295,18.9291625 15.1112668,18.9202062 C15.1472363,18.9016045 15.2279912,18.8805915 15.3362521,18.8805915 C15.4688453,18.8805915 15.5809853,18.9126277 15.6282393,18.9425971 L17.0458581,19.8230765 C17.6340641,20.1895984 18.5251892,20.0924563 19.0171241,19.6122575 L19.5157592,19.1251691 C20.0196839,18.6329136 20.1148971,17.7868818 19.7322811,17.1992066 L18.8302241,15.8147596 C18.756522,15.7017716 18.7441796,15.4282581 18.8076551,15.3097585 C18.8171764,15.2915013 18.8259924,15.2732441 18.8337505,15.2546425 L19.2861896,14.1802234 C19.293595,14.1633441 19.3002952,14.1461203 19.3055849,14.1285521 C19.3475492,14.0004072 19.5566656,13.8143904 19.6913747,13.78511 L21.3304524,13.4292668 C22.0265667,13.2783866 22.5717505,12.6145823 22.5717505,11.9183973 L22.5717505,11.2294463 C22.5717505,10.5329169 22.0265667,9.86945707 21.330805,9.7185768 L19.691022,9.36238914 C19.5566656,9.3334532 19.3475492,9.14743644 19.3055849,9.01929155 C19.3002952,9.0017233 19.293595,8.98449953 19.2861896,8.96762023 L18.8337505,7.89354564 C18.8259924,7.87494396 18.8171764,7.85634229 18.8076551,7.83842956 C18.7441796,7.71958552 18.756522,7.4457275 18.8302241,7.33308401 L19.7322811,5.94829253 C20.1148971,5.36096181 19.9811882,4.55287941 19.4776162,4.06062393 L19.0116741,3.60546763 L13.6249866,8.86751352 C14.2636204,9.49135864 14.8136374,10.6242029 14.8136374,11.5739218 C14.8136374,13.4733597 13.231335,15.0186767 11.2872224,15.0186767 C10.3149897,15.0186767 9.25825164,14.3805647 8.61961787,13.757064 L3.09152687,19.1572416 L3.55732062,19.6122575 C4.04855024,20.0917673 4.93826475,20.1895984 5.52858663,19.8234209 L6.94514754,18.9425971 Z" id="Fill-377" fill="#30404D"></path>
                            </g>
                            <g id="Gear-2" stroke-width="1" fill="none" fill-rule="evenodd" transform="translate(13.256881, 13.256881)">
                                <path d="M3.54561844,6.57110732 C5.50421807,6.57110732 7.09123688,5.1004935 7.09123688,3.28555366 C7.09123688,1.47061382 5.50421807,0 3.54561844,0 C1.58772794,0 0,1.47061382 0,3.28555366 C0,5.1004935 1.58772794,6.57110732 3.54561844,6.57110732 Z" id="Stroke-4" stroke="#30404D"></path>
                                <g id="Group-8" transform="translate(3.867947, 0.000000)">
                                    <mask id="mask-7" fill="white">
                                        <use xlink:href="#path-6"></use>
                                    </mask>
                                    <g id="Clip-7"></g>
                                    <polygon id="Stroke-6" stroke="#C4C4C4" mask="url(#mask-7)" points="-4.90294135 9.68769917 5.41904044 9.68769917 5.41904044 -2.81255782 -4.90294135 -2.81255782"></polygon>
                                </g>
                                <path d="M3.22328949,6.57110732 C5.00383461,6.57110732 6.44657898,5.1004935 6.44657898,3.28555366 C6.44657898,1.47061382 5.00383461,0 3.22328949,0" id="Stroke-9" stroke="#546670"></path>
                            </g>
                        </g>
                    </g>
                </g>
                <g id="Azure-Border" stroke="#0078D4" stroke-width="4">
                    <rect x="2" y="2" width="96" height="96" rx="48"></rect>
                </g>
            </g>
        </g>
    </g>
</svg>