<svg width="180" height="190" viewBox="0 0 180 190" fill="none" xmlns="http://www.w3.org/2000/svg">
<g clip-path="url(#clip0_2430_180)">
<path d="M90.1859 189.742C93.2459 189.742 96.2559 188.892 98.9159 187.272L160.886 149.612C166.426 146.242 169.856 139.912 169.856 133.072V58.3623C169.856 51.5423 166.426 45.2023 160.886 41.8223L98.9159 4.16225C93.5859 0.922252 86.7659 0.942252 81.4659 4.16225L19.4959 41.8423C13.9559 45.2123 10.5059 51.5423 10.5059 58.3823V133.082C10.5059 138.842 12.9559 144.262 17.0559 147.832V147.862L81.4659 187.292C84.1059 188.892 87.1259 189.742 90.1859 189.742ZM90.8359 8.69225C92.7859 8.69225 95.2659 9.90225 96.9759 10.9523L157.736 48.1423C161.486 50.4223 163.606 57.0223 163.606 61.7723L162.976 133.072C162.976 137.822 159.776 142.092 156.026 144.372L95.6259 180.752C92.1959 182.842 89.4059 182.842 85.9659 180.752L24.7559 144.282C21.0059 142.002 17.9859 137.802 17.9859 133.072V59.4323C17.9859 54.6923 20.7159 49.8023 24.4859 47.5123L85.0659 10.9523C86.7659 9.91225 88.8859 8.69225 90.8359 8.69225Z" fill="#F2F1F0"/>
<path fill-rule="evenodd" clip-rule="evenodd" d="M98.0856 12.272C95.6356 10.772 92.9156 10.022 90.1856 10.022C87.4556 10.022 84.7356 10.782 82.2856 12.272L26.1556 46.602C21.1356 49.672 18.0256 55.422 18.0256 61.672V129.772C18.0256 136.002 21.1256 141.772 26.1556 144.842L82.2856 179.172C84.7356 180.672 87.4556 181.422 90.1856 181.422C92.9156 181.422 95.6356 180.682 98.0856 179.172L154.216 144.842C159.236 141.772 162.346 136.002 162.346 129.772V61.672C162.346 55.442 159.246 49.692 154.216 46.602L98.0856 12.272Z" fill="url(#paint0_linear_2430_180)"/>
<path d="M90.1858 7.3418C93.1209 7.34185 95.8627 8.7935 97.9739 10.0742L156.434 45.6143C161.401 48.6333 164.486 54.3038 164.486 60.4824V130.962C164.486 137.141 161.401 142.811 156.434 145.83L97.9739 181.37C95.744 182.726 93.0357 183.912 90.176 183.912C87.3159 183.912 84.6174 182.716 82.3879 181.36L23.928 145.82C21.6589 144.445 19.5759 142.83 18.0979 140.4H18.0969C16.6189 137.961 15.8752 134.941 15.8752 130.962V60.4824C15.8752 54.3036 18.9602 48.6333 23.928 45.6143L82.3977 10.0645L82.4348 10.0479V10.0469C84.5221 8.7902 87.2532 7.3418 90.1858 7.3418ZM90.1858 11.6426C88.5414 11.6426 86.713 12.5006 84.6223 13.751L84.6213 13.75L26.1633 49.29C22.5609 51.4811 20.176 55.7014 20.176 60.4824V130.962C20.176 134.403 20.8123 136.594 21.7737 138.164L21.9592 138.456C22.916 139.893 24.288 141.006 26.1643 142.154L84.6438 177.684C86.5941 178.868 88.4857 179.603 90.1956 179.603C91.9054 179.603 93.797 178.868 95.7473 177.684L154.207 142.144C157.81 139.953 160.196 135.723 160.196 130.952V60.4727C160.196 55.6917 157.81 51.4714 154.207 49.2803L95.7375 13.7402C93.6789 12.4911 91.8205 11.6426 90.1858 11.6426Z" fill="url(#paint1_linear_2430_180)" stroke="black" stroke-width="0.3" stroke-linejoin="round"/>
<path d="M148.245 86.6862C148.245 85.418 147.211 84.3846 145.943 84.3846C145.113 84.3846 139.946 83.9306 137.175 81.7699C137.175 81.7699 137.191 81.7386 137.175 81.7699C136.126 77.9496 134.592 74.3799 132.697 70.998C132.212 67.7883 135.531 65.4555 137.05 62.9504C137.316 62.512 137.473 62.2615 137.567 62.0892C137.848 61.2751 137.692 60.3357 137.05 59.6937C137.05 59.6937 134.498 56.0457 131.883 53.4466C129.268 50.8476 125.307 47.9511 125.307 47.9511C124.415 47.0586 122.943 47.0586 122.051 47.9511C121.456 48.5304 117.526 51.7714 113.987 52.288C113.94 52.288 113.94 52.288 113.94 52.288C110.652 50.4249 106.957 48.8905 103.247 47.8415H103.2C100.585 45.9157 101.274 41.9232 100.585 39.0736C100.585 37.8054 99.5516 36.7721 98.2834 36.7721C98.2834 36.7721 93.8995 36.0049 90.2045 36.0049C86.5095 36.0049 81.6715 36.7721 81.6715 36.7721C80.4033 36.7721 79.3699 37.8054 79.3699 39.0736C79.3699 39.9034 78.9159 45.0702 76.7552 47.8415C73.0915 48.8748 69.2399 50.5031 65.9833 52.3193C62.7737 52.8047 60.4408 49.4854 57.9357 47.9667C57.4973 47.7006 57.2468 47.544 57.0745 47.4501C56.2604 47.1682 55.321 47.3248 54.679 47.9667C54.679 47.9667 51.031 50.5188 48.432 53.1335C45.8329 55.7482 42.9364 59.7094 42.9364 59.7094C42.044 60.6018 42.044 62.0736 42.9364 62.966C43.5157 63.5453 46.8506 67.5378 47.289 71.0136V71.045C45.4728 74.3016 43.8758 78.1375 42.8425 81.8012C42.8425 81.8012 42.8894 81.7386 42.8425 81.8012C40.6035 84.5255 36.9242 83.727 34.0746 84.4159C32.8064 84.4159 31.773 85.4493 31.773 86.7175C31.773 86.7175 31.0059 91.1014 31.0059 94.7964C31.0059 98.4915 31.773 103.329 31.773 103.329C31.773 104.598 32.8064 105.631 34.0746 105.631C34.9044 105.631 40.0712 106.085 42.8425 108.246C42.9051 108.214 42.8738 108.293 42.8738 108.293C43.9384 111.972 45.4572 115.651 47.3047 118.908C47.2733 118.955 47.3047 118.908 47.3203 119.018C47.6335 122.368 44.4864 124.56 42.9677 127.065C42.7015 127.504 42.545 127.754 42.451 127.926C42.1692 128.741 42.3258 129.68 42.9677 130.322C42.9677 130.322 45.5198 133.97 48.1345 136.569C50.7492 139.184 54.7104 142.065 54.7104 142.065C55.6028 142.957 57.0745 142.957 57.967 142.065C58.5463 141.485 62.5388 138.15 66.0146 137.712C66.0146 137.712 65.999 137.728 66.0616 137.743C69.4122 139.606 72.8723 141.078 76.6613 142.111C76.6926 142.127 76.8022 142.158 76.8022 142.158C79.4169 144.084 78.728 148.077 79.4169 150.926C79.5578 152.21 80.2624 153.024 81.7185 153.228C81.7185 153.228 86.1024 153.995 89.7974 153.995C93.4924 153.995 98.3304 153.244 98.3304 153.244C99.5986 153.024 100.632 152.21 100.632 150.942C100.632 150.112 101.086 144.945 103.247 142.174C103.247 142.174 103.341 142.096 103.435 142.018C107.286 140.937 110.214 139.747 113.612 137.79C113.784 137.728 113.596 137.743 114.003 137.681C117.213 137.195 119.545 140.514 122.051 142.033C122.489 142.299 122.739 142.456 122.912 142.55C123.726 142.832 124.665 142.675 125.307 142.033C125.307 142.033 128.955 139.481 131.554 136.866C134.169 134.252 137.05 130.291 137.05 130.291C137.942 129.398 137.942 127.926 137.05 127.034C136.471 126.455 133.136 122.462 132.697 118.986C132.65 118.626 132.682 118.579 132.729 118.485C134.67 115.056 135.891 112.551 136.956 108.668C136.956 108.668 136.909 108.543 137.159 108.214C139.085 105.6 143.078 106.289 145.927 105.6C147.195 105.6 148.229 104.566 148.229 103.298C148.229 103.298 148.996 98.9142 148.996 95.2192C148.996 91.5241 148.245 86.6862 148.245 86.6862Z" fill="url(#paint2_linear_2430_180)"/>
<g filter="url(#filter0_d_2430_180)">
<circle cx="90.0013" cy="95.4725" r="41.9642" fill="white"/>
</g>
<path d="M103.036 87.3699L85.5316 97.5827L67.1626 77.1103C65.8071 75.5912 66.8821 73.1841 68.892 73.1841H103.036V87.3699Z" fill="url(#paint3_linear_2430_180)"/>
<path d="M112.759 84.3553L102.897 73.2544L67.0231 113.311C65.8078 114.667 66.766 116.817 68.5889 116.817H83.5693L112.759 84.3553Z" fill="url(#paint4_linear_2430_180)"/>
<path d="M121.056 93.6565L112.666 84.2148L83.0796 116.816H102.15C102.547 116.816 102.921 116.653 103.201 116.349L121.033 96.9283C121.874 96.0169 121.898 94.5913 121.056 93.6565Z" fill="url(#paint5_linear_2430_180)"/>
</g>
<defs>
<filter id="filter0_d_2430_180" x="44.0371" y="53.5083" width="91.9285" height="91.9282" filterUnits="userSpaceOnUse" color-interpolation-filters="sRGB">
<feFlood flood-opacity="0" result="BackgroundImageFix"/>
<feColorMatrix in="SourceAlpha" type="matrix" values="0 0 0 0 0 0 0 0 0 0 0 0 0 0 0 0 0 0 127 0" result="hardAlpha"/>
<feOffset dy="4"/>
<feGaussianBlur stdDeviation="2"/>
<feComposite in2="hardAlpha" operator="out"/>
<feColorMatrix type="matrix" values="0 0 0 0 0 0 0 0 0 0 0 0 0 0 0 0 0 0 0.25 0"/>
<feBlend mode="normal" in2="BackgroundImageFix" result="effect1_dropShadow_2430_180"/>
<feBlend mode="normal" in="SourceGraphic" in2="effect1_dropShadow_2430_180" result="shape"/>
</filter>
<linearGradient id="paint0_linear_2430_180" x1="96.8261" y1="3.084" x2="105.003" y2="204.58" gradientUnits="userSpaceOnUse">
<stop offset="0.318529" stop-color="#EFF7FF"/>
<stop offset="1" stop-color="#C1E2FF"/>
</linearGradient>
<linearGradient id="paint1_linear_2430_180" x1="49.672" y1="16.9091" x2="103.377" y2="257.876" gradientUnits="userSpaceOnUse">
<stop offset="0.0511799" stop-color="#6BB8FC"/>
<stop offset="0.49" stop-color="#3082F1"/>
<stop offset="1" stop-color="#1051D3"/>
</linearGradient>
<linearGradient id="paint2_linear_2430_180" x1="38.3856" y1="-20.8101" x2="173.469" y2="148.429" gradientUnits="userSpaceOnUse">
<stop offset="0.4598" stop-color="#1152D4"/>
<stop offset="0.6156" stop-color="#0D3FB3"/>
</linearGradient>
<linearGradient id="paint3_linear_2430_180" x1="68.8396" y1="61.4356" x2="108.636" y2="98.88" gradientUnits="userSpaceOnUse">
<stop offset="0.4598" stop-color="#1152D4"/>
<stop offset="0.6156" stop-color="#0D3FB3"/>
</linearGradient>
<linearGradient id="paint4_linear_2430_180" x1="66.4855" y1="95.0426" x2="112.75" y2="95.0426" gradientUnits="userSpaceOnUse">
<stop stop-color="#388CF4"/>
<stop offset="1" stop-color="#2C7CEF"/>
</linearGradient>
<linearGradient id="paint5_linear_2430_180" x1="83.0768" y1="100.519" x2="121.678" y2="100.519" gradientUnits="userSpaceOnUse">
<stop stop-color="#76C0FD"/>
<stop offset="1" stop-color="#63B2FB"/>
</linearGradient>
<clipPath id="clip0_2430_180">
<rect width="180" height="190" fill="white"/>
</clipPath>
</defs>
</svg>
